<svg version="1.1" xmlns="http://www.w3.org/2000/svg" xmlns:xlink="http://www.w3.org/1999/xlink" width="315.97802" height="92.27501" viewBox="0,0,315.97802,92.27501"><g transform="translate(-162.01099,-133.86249)"><g data-paper-data="{&quot;isPaintingLayer&quot;:true}" fill="#ffffff" fill-rule="nonzero" stroke="none" stroke-width="0" stroke-linecap="butt" stroke-linejoin="miter" stroke-miterlimit="10" stroke-dasharray="" stroke-dashoffset="0" style="mix-blend-mode: normal"><g><path d="M186,226.00806v-92.0161h268v92.0161z"/><path d="M185.96258,201.79915v-43.46847h268v43.46847z"/><path d="M162.2869,202.11349c0,-13.2681 10.75593,-24.02402 24.02403,-24.02402c13.2681,0 24.02402,10.75592 24.02402,24.02402c0,13.2681 -10.75592,24.02402 -24.02402,24.02402c-13.2681,0 -24.02403,-10.75592 -24.02403,-24.02402z"/><path d="M162.01099,157.88652c0,-13.2681 10.75592,-24.02403 24.02402,-24.02403c13.2681,0 24.02402,10.75593 24.02402,24.02403c0,13.2681 -10.75592,24.02402 -24.02402,24.02402c-13.2681,0 -24.02402,-10.75593 -24.02402,-24.02402z"/><path d="M429.89146,201.76228c0,-13.2681 10.75592,-24.02402 24.02402,-24.02402c13.2681,0 24.02402,10.75592 24.02402,24.02402c0,13.2681 -10.75592,24.02402 -24.02402,24.02402c-13.2681,0 -24.02402,-10.75592 -24.02402,-24.02402z"/><path d="M429.94097,158.45835c0,-13.2681 10.75592,-24.02403 24.02402,-24.02403c13.2681,0 24.02402,10.75592 24.02402,24.02403c0,13.2681 -10.75592,24.02402 -24.02402,24.02402c-13.2681,0 -24.02402,-10.75593 -24.02402,-24.02402z"/><path d="M162.68513,201.73424v-43.46847h314.62973v43.46847z"/></g></g></g></svg>