<svg version="1.1" xmlns="http://www.w3.org/2000/svg" xmlns:xlink="http://www.w3.org/1999/xlink" width="51.64812" height="50.27502" viewBox="0,0,51.64812,50.27502"><g transform="translate(-294.17594,-154.86249)"><g data-paper-data="{&quot;isPaintingLayer&quot;:true}" fill-rule="nonzero" stroke-linecap="butt" stroke-linejoin="miter" stroke-miterlimit="10" stroke-dasharray="" stroke-dashoffset="0" style="mix-blend-mode: normal"><g fill="#ffffff" stroke="none" stroke-width="0"><path d="M294.31989,192.04829c0,-7.22898 5.61152,-13.08922 12.53369,-13.08922c6.92216,0 12.53368,5.86024 12.53368,13.08922c0,7.22898 -5.61152,13.08922 -12.53368,13.08922c-6.92216,0 -12.53369,-5.86024 -12.53369,-13.08922z"/><path d="M294.17594,167.95172c0,-7.22898 5.61152,-13.08923 12.53368,-13.08923c6.92216,0 12.53368,5.86025 12.53368,13.08923c0,7.22898 -5.61152,13.08922 -12.53368,13.08922c-6.92216,0 -12.53368,-5.86025 -12.53368,-13.08922z"/><path d="M320.73087,191.68237c0,-3.15703 1.07024,-6.05301 2.85251,-8.31383c2.29877,-2.91602 5.78205,-4.77539 9.68117,-4.77539c6.92216,0 12.53368,5.86024 12.53368,13.08922c0,7.22898 -5.61152,13.08922 -12.53368,13.08922c-6.92216,0 -12.53368,-5.86024 -12.53368,-13.08922z"/><path d="M320.7567,168.0887c0,-7.22898 5.61152,-13.08923 12.53368,-13.08923c6.92216,0 12.53368,5.86024 12.53368,13.08923c0,7.22898 -5.61152,13.08922 -12.53368,13.08922c-6.92216,0 -12.53368,-5.86025 -12.53368,-13.08922z"/><path d="M303.79869,205.06698v-50.13395h31.89643v50.13395z"/><path d="M300.34954,191.87702v-23.68331h31.89643v23.68331z"/><path d="M294.33196,191.84166v-23.68331h51.34056v23.68331z"/></g><g><path d="M304.89495,192.76191v-21.14286c0,0 2.49432,0 5.03787,0c0.71246,0 2.76212,-4.38095 3.42857,-4.38095c1.51431,0 2.61332,0 5.33333,0c1.13957,0 2.32962,4.38096 3.52381,4.38096c6.16874,0 12.44785,0 12.44785,0v21.14286z" fill="#ffffff" stroke="#000000" stroke-width="2"/><path d="M308.31377,182.03505c0,-4.05009 3.28325,-7.33334 7.33334,-7.33334c4.05009,0 7.33333,3.28324 7.33333,7.33334c0,4.05009 -3.28324,7.33333 -7.33333,7.33333c-4.05009,0 -7.33334,-3.28324 -7.33334,-7.33333z" fill="#ffffff" stroke="#000000" stroke-width="2"/><path d="M310.83758,181.98743c0,-2.68252 2.17462,-4.85714 4.85714,-4.85714c2.68253,0 4.85714,2.17462 4.85714,4.85714c0,2.68252 -2.17461,4.85714 -4.85714,4.85714c-2.68252,0 -4.85714,-2.17462 -4.85714,-4.85714z" fill="#ffffff" stroke="#000000" stroke-width="1"/><path d="M313.26615,181.93981c0,-1.31497 1.06599,-2.38095 2.38096,-2.38095c1.31496,0 2.38095,1.06598 2.38095,2.38095c0,1.31497 -1.06599,2.38096 -2.38095,2.38096c-1.31497,0 -2.38096,-1.06599 -2.38096,-2.38096z" fill="#000000" stroke="#000000" stroke-width="2"/><path d="M324.62313,175.2845c0,-0.55229 0.44772,-1 1,-1c0.55228,0 1,0.44771 1,1c0,0.55229 -0.44772,1 -1,1c-0.55228,0 -1,-0.44771 -1,-1z" fill="#ff0000" stroke="none" stroke-width="0.5"/><path d="M313.50724,171.73494l0.70176,-2.66026h3.81907l0.66667,2.66026z" fill="none" stroke="#000000" stroke-width="0.5"/><path d="M333.83658,187.63248c0,0 -2.16486,-1.82843 -2.16486,-3.53849c0,-1.61297 0,-3.43593 0,-4.43003c0,-1.38519 2.16486,-3.1287 2.16486,-3.1287h1.26847v11.09722z" fill="none" stroke="#000000" stroke-width="1"/></g></g></g></svg>
