<svg version="1.1" xmlns="http://www.w3.org/2000/svg" xmlns:xlink="http://www.w3.org/1999/xlink" width="51.64812" height="50.27502" viewBox="0,0,51.64812,50.27502"><g transform="translate(-294.17594,-154.86249)"><g data-paper-data="{&quot;isPaintingLayer&quot;:true}" fill-rule="nonzero" stroke-linecap="butt" stroke-linejoin="miter" stroke-miterlimit="10" stroke-dasharray="" stroke-dashoffset="0" style="mix-blend-mode: normal"><g fill="#00dc1e" stroke="none" stroke-width="0"><path d="M294.31989,192.04829c0,-7.22898 5.61152,-13.08922 12.53369,-13.08922c6.92216,0 12.53368,5.86024 12.53368,13.08922c0,7.22898 -5.61152,13.08922 -12.53368,13.08922c-6.92216,0 -12.53369,-5.86024 -12.53369,-13.08922z"/><path d="M294.17594,167.95172c0,-7.22898 5.61152,-13.08923 12.53368,-13.08923c6.92216,0 12.53368,5.86025 12.53368,13.08923c0,7.22898 -5.61152,13.08922 -12.53368,13.08922c-6.92216,0 -12.53368,-5.86025 -12.53368,-13.08922z"/><path d="M320.73087,191.68237c0,-7.22898 5.61152,-13.08922 12.53368,-13.08922c6.92216,0 12.53368,5.86024 12.53368,13.08922c0,7.22898 -5.61152,13.08922 -12.53368,13.08922c-6.92216,0 -12.53368,-5.86024 -12.53368,-13.08922z"/><path d="M320.7567,168.0887c0,-7.22898 5.61152,-13.08923 12.53368,-13.08923c6.92216,0 12.53368,5.86024 12.53368,13.08923c0,7.22898 -5.61152,13.08922 -12.53368,13.08922c-6.92216,0 -12.53368,-5.86025 -12.53368,-13.08922z"/><path d="M303.79869,205.06698v-50.13395h31.89643v50.13395z"/><path d="M300.34954,191.87702v-23.68331h31.89643v23.68331z"/><path d="M294.33196,191.84166v-23.68331h51.34056v23.68331z"/></g><path d="M334.80516,178.85283c0,6.69395 -6.62849,12.12047 -14.80516,12.12047c-1.87314,0 -3.66504,-0.28478 -5.31461,-0.80434c-1.07416,-0.33832 -5.18978,2.19584 -6.81799,2.70005c-0.29493,0.09134 0.3109,0.48269 0.14641,0.3823c-1.08698,-0.66343 1.08681,-6.12123 0.25878,-6.99954c-1.92978,-2.04697 -3.07775,-4.61321 -3.07775,-7.39894c0,-6.69395 6.6285,-12.12048 14.80516,-12.12048c8.17666,0 14.80516,5.42652 14.80516,12.12048z" fill="#ffffff" stroke="none" stroke-width="0"/><path d="M328.12025,178.73296c5.01588,0 9.08206,3.32884 9.08206,7.43517c0,1.70888 -0.70421,3.28311 -1.88801,4.5388c-0.50795,0.53879 0.82554,3.88682 0.15875,4.29379c-0.1009,0.06159 0.27074,-0.17848 0.08982,-0.23452c-0.99881,-0.30931 -3.52349,-1.86386 -4.18242,-1.65632c-1.01191,0.31872 -2.11113,0.49341 -3.26019,0.49341c-5.01588,0 -9.08206,-3.32883 -9.08206,-7.43517c0,-4.10633 4.06618,-7.43517 9.08206,-7.43517z" data-paper-data="{&quot;index&quot;:null}" fill="#ffffff" stroke="#00dc1e" stroke-width="2.5"/></g></g></svg>