<svg version="1.1" xmlns="http://www.w3.org/2000/svg" xmlns:xlink="http://www.w3.org/1999/xlink" width="98.99689" height="92.27502" viewBox="0,0,98.99689,92.27502"><g transform="translate(-270.50156,-133.86249)"><g data-paper-data="{&quot;isPaintingLayer&quot;:true}" fill="#ffffff" fill-rule="nonzero" stroke="none" stroke-width="0" stroke-linecap="butt" stroke-linejoin="miter" stroke-miterlimit="10" stroke-dasharray="" stroke-dashoffset="0" style="mix-blend-mode: normal"><g><path d="M270.77747,202.11349c0,-13.2681 10.75593,-24.02402 24.02403,-24.02402c13.2681,0 24.02402,10.75592 24.02402,24.02402c0,13.2681 -10.75592,24.02402 -24.02402,24.02402c-13.2681,0 -24.02403,-10.75592 -24.02403,-24.02402z"/><path d="M270.50156,157.88652c0,-13.2681 10.75592,-24.02403 24.02402,-24.02403c13.2681,0 24.02402,10.75593 24.02402,24.02403c0,13.2681 -10.75592,24.02402 -24.02402,24.02402c-13.2681,0 -24.02402,-10.75593 -24.02402,-24.02402z"/><path d="M321.4009,201.44188c0,-13.2681 10.75592,-24.02402 24.02402,-24.02402c13.2681,0 24.02402,10.75592 24.02402,24.02402c0,13.2681 -10.75592,24.02402 -24.02402,24.02402c-13.2681,0 -24.02402,-10.75592 -24.02402,-24.02402z"/><path d="M321.45041,158.13795c0,-13.2681 10.75592,-24.02403 24.02402,-24.02403c13.2681,0 24.02402,10.75592 24.02402,24.02403c0,13.2681 -10.75592,24.02402 -24.02402,24.02402c-13.2681,0 -24.02402,-10.75593 -24.02402,-24.02402z"/><path d="M288.94603,226.00806v-92.0161h61.13771v92.0161z"/><path d="M282.33485,201.79915v-43.46847h61.13771v43.46847z"/><path d="M270.8006,201.73424v-43.46847h98.40738v43.46847z"/></g></g></g></svg>