<svg version="1.1" xmlns="http://www.w3.org/2000/svg" xmlns:xlink="http://www.w3.org/1999/xlink" width="94.79521" height="92.27502" viewBox="0,0,94.79521,92.27502"><g transform="translate(-272.6024,-133.86249)"><g data-paper-data="{&quot;isPaintingLayer&quot;:true}" fill-rule="nonzero" stroke-linecap="butt" stroke-linejoin="miter" stroke-miterlimit="10" stroke-dasharray="" stroke-dashoffset="0" style="mix-blend-mode: normal"><g><g fill="#00dc1e" stroke="none" stroke-width="0"><path d="M272.8666,202.11349c0,-13.2681 10.29942,-24.02402 23.00439,-24.02402c12.70497,0 23.00438,10.75592 23.00438,24.02402c0,13.2681 -10.29941,24.02402 -23.00438,24.02402c-12.70497,0 -23.00439,-10.75592 -23.00439,-24.02402z"/><path d="M272.6024,157.88652c0,-13.2681 10.29941,-24.02403 23.00438,-24.02403c12.70497,0 23.00438,10.75593 23.00438,24.02403c0,13.2681 -10.29941,24.02402 -23.00438,24.02402c-12.70497,0 -23.00438,-10.75593 -23.00438,-24.02402z"/><path d="M321.34144,201.44188c0,-13.2681 10.29941,-24.02402 23.00438,-24.02402c12.70497,0 23.00438,10.75592 23.00438,24.02402c0,13.2681 -10.29941,24.02402 -23.00438,24.02402c-12.70497,0 -23.00438,-10.75592 -23.00438,-24.02402z"/><path d="M321.38885,158.13794c0,-13.2681 10.29941,-24.02403 23.00438,-24.02403c12.70497,0 23.00438,10.75592 23.00438,24.02403c0,13.2681 -10.29941,24.02402 -23.00438,24.02402c-12.70497,0 -23.00438,-10.75593 -23.00438,-24.02402z"/><path d="M290.26404,226.00806v-92.0161h58.54287v92.0161z"/><path d="M283.93346,201.79915v-43.46847h58.54287v43.46847z"/><path d="M272.88875,201.73424v-43.46847h94.23072v43.46847z"/></g><path d="M347.17346,177.89447c0,12.28611 -12.16596,22.24597 -27.17346,22.24597c-3.43797,0 -6.72683,-0.52268 -9.75446,-1.47629c-1.97152,-0.62095 -9.52535,4.03025 -12.51378,4.95569c-0.54132,0.16764 0.57062,0.88593 0.26872,0.70167c-1.99504,-1.21767 1.99474,-11.23494 0.47497,-12.84699c-3.54192,-3.75702 -5.64891,-8.46711 -5.64891,-13.58006c0,-12.28611 12.16598,-22.24599 27.17346,-22.24599c15.00748,0 27.17346,9.95987 27.17346,22.24599z" fill="#ffffff" stroke="none" stroke-width="0"/><path d="M334.90396,177.67446c9.20617,0 16.66925,6.10977 16.66925,13.64655c0,3.13648 -1.29251,6.02583 -3.46526,8.33053c-0.93229,0.98889 1.5152,7.13388 0.29137,7.88085c-0.18519,0.11304 0.49691,-0.32759 0.16485,-0.43043c-1.83322,-0.56771 -6.46703,-3.42093 -7.67644,-3.04002c-1.85727,0.58498 -3.87478,0.90561 -5.98377,0.90561c-9.20618,0 -16.66925,-6.10976 -16.66925,-13.64654c0,-7.53678 7.46308,-13.64655 16.66925,-13.64655z" data-paper-data="{&quot;index&quot;:null}" fill="#ffffff" stroke="#00dc1e" stroke-width="2.5"/></g></g></g></svg>