<svg version="1.1" xmlns="http://www.w3.org/2000/svg" xmlns:xlink="http://www.w3.org/1999/xlink" width="128.10497" height="37.3734" viewBox="0,0,128.10497,37.3734"><g transform="translate(-256.01099,-161.3133)"><g data-paper-data="{&quot;isPaintingLayer&quot;:true}" fill-rule="nonzero" stroke="none" stroke-linecap="butt" stroke-linejoin="miter" stroke-miterlimit="10" stroke-dasharray="" stroke-dashoffset="0" style="mix-blend-mode: normal"><path d="M265.72706,198.63427v-37.26854h108.54587v37.26854z" fill="#ffffff" stroke-width="0"/><path d="M265.71191,188.82913v-17.60568h108.54587v17.60568z" fill="#ffffff" stroke-width="0"/><path d="M256.12274,188.95645c0,-5.37387 4.35639,-9.73025 9.73026,-9.73025c5.37387,0 9.73025,4.35638 9.73025,9.73025c0,5.37387 -4.35638,9.73025 -9.73025,9.73025c-5.37387,0 -9.73026,-4.35638 -9.73026,-9.73025z" fill="#ffffff" stroke-width="0"/><path d="M256.01099,171.04356c0,-5.37387 4.35638,-9.73026 9.73025,-9.73026c5.37387,0 9.73025,4.35639 9.73025,9.73026c0,5.37387 -4.35638,9.73025 -9.73025,9.73025c-5.37387,0 -9.73025,-4.35639 -9.73025,-9.73025z" fill="#ffffff" stroke-width="0"/><path d="M364.50845,188.8142c0,-5.37387 4.35638,-9.73025 9.73025,-9.73025c5.37387,0 9.73025,4.35638 9.73025,9.73025c0,5.37387 -4.35638,9.73025 -9.73025,9.73025c-5.37387,0 -9.73025,-4.35638 -9.73025,-9.73025z" fill="#ffffff" stroke-width="0"/><path d="M364.5285,171.27516c0,-5.37387 4.35638,-9.73026 9.73025,-9.73026c5.37387,0 9.73025,4.35638 9.73025,9.73026c0,5.37387 -4.35638,9.73025 -9.73025,9.73025c-5.37387,0 -9.73025,-4.35639 -9.73025,-9.73025z" fill="#ffffff" stroke-width="0"/><path d="M256.05546,188.80284v-17.60568h128.0605v17.60568z" fill="#ffffff" stroke-width="0"/><text transform="translate(280,185.76875) scale(0.5,0.5)" font-size="40" xml:space="preserve" fill="#000000" fill-rule="nonzero" stroke="none" stroke-width="1" stroke-linecap="butt" stroke-linejoin="miter" stroke-miterlimit="10" stroke-dasharray="" stroke-dashoffset="0" font-family="Sans Serif" font-weight="normal" text-anchor="start" style="mix-blend-mode: normal"><tspan x="0" dy="0">编辑文本</tspan></text></g></g></svg>